<svg xmlns="http://www.w3.org/2000/svg" viewBox="0 0 601 485" width="601" height="485">
	<defs>
		<clipPath clipPathUnits="userSpaceOnUse" id="cp1">
			<path d="M-697 -901L743 -901L743 4703L-697 4703Z" />
		</clipPath>
	</defs>
	<style>
		tspan { white-space:pre }
		.shp0 { opacity: 0.102;fill: #e9f4fe } 
		.shp1 { fill: #d8362a } 
		.shp2 { fill: #ffffff } 
	</style>
	<g id="PayTack-1" clip-path="url(#cp1)">
		<g id="Video Section">
			<g id="Video Section">
				<path id="Ellipse 11" fill-rule="evenodd" class="shp0" d="M596.81 240.08C596.81 355.67 446.01 501.21 354.08 483.27C262.15 465.33 1.81 378.73 1.81 263.14C1.81 147.56 122.68 136.71 344 30.79C565.32 -75.14 596.81 124.49 596.81 240.08Z" />
				<path id="Ellipse 12" fill-rule="evenodd" class="shp0" d="M571.28 347.62C529.15 455.08 250.87 475.06 171.78 424.81C92.7 374.56 -33.43 259.26 8.7 151.8C50.83 44.34 104.02 46.02 348.76 28.36C593.5 10.69 613.41 240.17 571.28 347.62Z" />
				<path id="Video_bg" d="M35 60L585 60C593.3 60 600 66.7 600 75L600 371C600 379.29 593.3 386 585 386L35 386C26.71 386 20 379.29 20 371L20 75C20 66.7 26.71 60 35 60Z" />
				<g id="youtube (1) 1">
					<path id="Vector" fill-rule="evenodd" class="shp1" d="M337.42 212.93C337.42 212.93 336.84 208.78 335.2 206.94C333.08 204.53 330.66 204.53 329.6 204.43C321.78 203.85 310 203.76 310 203.76C310 203.76 298.22 203.85 290.4 204.43C289.34 204.53 286.92 204.63 284.8 206.94C283.06 208.78 282.58 212.93 282.58 212.93C282.58 212.93 282 217.85 282 222.78L282 227.32C282 232.24 282.58 237.07 282.58 237.07C282.58 237.07 283.16 241.22 284.8 243.06C286.92 245.47 289.73 245.37 290.98 245.66C295.42 246.14 310 246.24 310 246.24C310 246.24 321.78 246.24 329.6 245.57C330.66 245.47 333.08 245.37 335.2 243.06C336.84 241.22 337.42 237.07 337.42 237.07C337.42 237.07 338 232.14 338 227.32L338 222.78C338 217.85 337.42 212.93 337.42 212.93Z" />
					<path id="Vector" fill-rule="evenodd" class="shp2" d="M303.24 215.25L303.24 236.2L321.59 225.97L303.24 215.25Z" />
				</g>
			</g>
		</g>
	</g>
</svg>